<svg width="400" height="300" viewBox="0 0 400 300" fill="none" xmlns="http://www.w3.org/2000/svg">
  <!-- Ground shadow -->
  <ellipse cx="200" cy="250" rx="60" ry="20" fill="#3a3a3a" opacity="0.3"/>
  
  <!-- Left chair -->
  <rect x="120" y="180" width="40" height="80" rx="8" fill="#666" opacity="0.6"/>
  <rect x="115" y="175" width="50" height="12" rx="6" fill="#777" opacity="0.6"/>
  <rect x="118" y="178" width="8" height="60" rx="4" fill="#555" opacity="0.4"/>
  <rect x="152" y="178" width="8" height="60" rx="4" fill="#555" opacity="0.4"/>
  
  <!-- Right chair -->
  <rect x="240" y="180" width="40" height="80" rx="8" fill="#666" opacity="0.6"/>
  <rect x="235" y="175" width="50" height="12" rx="6" fill="#777" opacity="0.6"/>
  <rect x="238" y="178" width="8" height="60" rx="4" fill="#555" opacity="0.4"/>
  <rect x="272" y="178" width="8" height="60" rx="4" fill="#555" opacity="0.4"/>
  
  <!-- Person -->
  <!-- Head -->
  <circle cx="200" cy="140" r="25" fill="#d4a574" opacity="0.7"/>
  <!-- Hair -->
  <path d="M180 125 Q200 115 220 125 Q215 135 200 140 Q185 135 180 125 Z" fill="#8b4513" opacity="0.6"/>
  <!-- Body/Shirt -->
  <rect x="175" y="155" width="50" height="25" rx="10" fill="#f5deb3" opacity="0.7"/>
  <!-- Pants -->
  <rect x="180" y="165" width="40" height="60" rx="15" fill="#87ceeb" opacity="0.7"/>
  <!-- Arms -->
  <ellipse cx="165" cy="170" rx="12" ry="30" fill="#d4a574" opacity="0.6"/>
  <ellipse cx="235" cy="170" rx="12" ry="30" fill="#d4a574" opacity="0.6"/>
  <!-- Hands -->
  <circle cx="165" cy="190" r="8" fill="#d4a574" opacity="0.6"/>
  <circle cx="235" cy="190" r="8" fill="#d4a574" opacity="0.6"/>
  <!-- Legs -->
  <ellipse cx="190" cy="235" rx="8" ry="25" fill="#d4a574" opacity="0.6"/>
  <ellipse cx="210" cy="235" rx="8" ry="25" fill="#d4a574" opacity="0.6"/>
  <!-- Feet -->
  <ellipse cx="185" cy="255" rx="12" ry="6" fill="#333" opacity="0.6"/>
  <ellipse cx="215" cy="255" rx="12" ry="6" fill="#333" opacity="0.6"/>
  
  <!-- Dog (left) -->
  <!-- Body -->
  <ellipse cx="100" cy="220" rx="25" ry="15" fill="#8b4513" opacity="0.6"/>
  <!-- Head -->
  <circle cx="85" cy="210" r="12" fill="#8b4513" opacity="0.6"/>
  <!-- Ears -->
  <ellipse cx="82" cy="207" rx="3" ry="8" fill="#654321" opacity="0.6"/>
  <ellipse cx="88" cy="207" rx="3" ry="8" fill="#654321" opacity="0.6"/>
  <!-- Nose -->
  <circle cx="80" cy="210" r="2" fill="#000" opacity="0.8"/>
  <!-- Tail -->
  <ellipse cx="120" cy="215" rx="8" ry="4" fill="#8b4513" opacity="0.5"/>
  <!-- Legs -->
  <ellipse cx="90" cy="230" rx="3" ry="8" fill="#8b4513" opacity="0.6"/>
  <ellipse cx="95" cy="230" rx="3" ry="8" fill="#8b4513" opacity="0.6"/>
  <ellipse cx="105" cy="230" rx="3" ry="8" fill="#8b4513" opacity="0.6"/>
  <ellipse cx="110" cy="230" rx="3" ry="8" fill="#8b4513" opacity="0.6"/>
  
  <!-- Cat (right) -->
  <!-- Body -->
  <ellipse cx="300" cy="220" rx="20" ry="12" fill="#daa520" opacity="0.6"/>
  <!-- Head -->
  <circle cx="315" cy="210" r="10" fill="#daa520" opacity="0.6"/>
  <!-- Ears -->
  <polygon points="310,200 315,195 320,200" fill="#daa520" opacity="0.6"/>
  <polygon points="310,204 315,199 320,204" fill="#daa520" opacity="0.6"/>
  <!-- Inner ears -->
  <polygon points="312,201 315,198 318,201" fill="#ff69b4" opacity="0.4"/>
  <polygon points="312,205 315,202 318,205" fill="#ff69b4" opacity="0.4"/>
  <!-- Eyes -->
  <ellipse cx="312" cy="208" rx="1" ry="2" fill="#000" opacity="0.8"/>
  <ellipse cx="318" cy="208" rx="1" ry="2" fill="#000" opacity="0.8"/>
  <!-- Nose -->
  <polygon points="315,211 314,213 316,213" fill="#ff69b4" opacity="0.6"/>
  <!-- Tail -->
  <path d="M320 220 Q330 215 325 205 Q320 210 318 218" stroke="#daa520" stroke-width="4" fill="none" opacity="0.6"/>
  <!-- Legs -->
  <ellipse cx="295" cy="230" rx="2" ry="6" fill="#daa520" opacity="0.6"/>
  <ellipse cx="300" cy="230" rx="2" ry="6" fill="#daa520" opacity="0.6"/>
  <ellipse cx="305" cy="230" rx="2" ry="6" fill="#daa520" opacity="0.6"/>
  <ellipse cx="310" cy="230" rx="2" ry="6" fill="#daa520" opacity="0.6"/>
</svg>